<mxfile host="app.diagrams.net" modified="2022-08-06T17:14:20.760Z" agent="5.0 (Windows NT 10.0; Win64; x64) AppleWebKit/537.36 (KHTML, like Gecko) Chrome/104.0.0.0 Safari/537.36" etag="F6iJAe3H2_0zizBC9IrP" version="20.2.3" type="github">
  <diagram id="C5RBs43oDa-KdzZeNtuy" name="Page-1">
    <mxGraphModel dx="978" dy="545" grid="1" gridSize="10" guides="1" tooltips="1" connect="1" arrows="1" fold="1" page="1" pageScale="1" pageWidth="827" pageHeight="1169" math="0" shadow="0">
      <root>
        <mxCell id="WIyWlLk6GJQsqaUBKTNV-0" />
        <mxCell id="WIyWlLk6GJQsqaUBKTNV-1" parent="WIyWlLk6GJQsqaUBKTNV-0" />
        <mxCell id="2hGMCiskvzY-LJA3LFDo-0" style="edgeStyle=orthogonalEdgeStyle;rounded=0;orthogonalLoop=1;jettySize=auto;html=1;" edge="1" parent="WIyWlLk6GJQsqaUBKTNV-1" source="2hGMCiskvzY-LJA3LFDo-1" target="2hGMCiskvzY-LJA3LFDo-3">
          <mxGeometry relative="1" as="geometry" />
        </mxCell>
        <mxCell id="2hGMCiskvzY-LJA3LFDo-1" value="INICIO" style="rounded=1;whiteSpace=wrap;html=1;arcSize=50;" vertex="1" parent="WIyWlLk6GJQsqaUBKTNV-1">
          <mxGeometry x="344" y="50" width="140" height="60" as="geometry" />
        </mxCell>
        <mxCell id="2hGMCiskvzY-LJA3LFDo-2" style="edgeStyle=orthogonalEdgeStyle;rounded=0;orthogonalLoop=1;jettySize=auto;html=1;" edge="1" parent="WIyWlLk6GJQsqaUBKTNV-1" source="2hGMCiskvzY-LJA3LFDo-3" target="2hGMCiskvzY-LJA3LFDo-5">
          <mxGeometry relative="1" as="geometry" />
        </mxCell>
        <mxCell id="2hGMCiskvzY-LJA3LFDo-3" value="int i&lt;br&gt;int j&lt;br&gt;char m[5][5]" style="rounded=0;whiteSpace=wrap;html=1;" vertex="1" parent="WIyWlLk6GJQsqaUBKTNV-1">
          <mxGeometry x="354" y="160" width="120" height="60" as="geometry" />
        </mxCell>
        <mxCell id="2hGMCiskvzY-LJA3LFDo-4" style="edgeStyle=orthogonalEdgeStyle;rounded=0;orthogonalLoop=1;jettySize=auto;html=1;entryX=0.5;entryY=0;entryDx=0;entryDy=0;" edge="1" parent="WIyWlLk6GJQsqaUBKTNV-1" source="2hGMCiskvzY-LJA3LFDo-5" target="2hGMCiskvzY-LJA3LFDo-7">
          <mxGeometry relative="1" as="geometry" />
        </mxCell>
        <mxCell id="2hGMCiskvzY-LJA3LFDo-5" value="i = 0&lt;br&gt;j = 0" style="rounded=0;whiteSpace=wrap;html=1;" vertex="1" parent="WIyWlLk6GJQsqaUBKTNV-1">
          <mxGeometry x="354" y="280" width="120" height="60" as="geometry" />
        </mxCell>
        <mxCell id="2hGMCiskvzY-LJA3LFDo-6" style="edgeStyle=orthogonalEdgeStyle;rounded=0;orthogonalLoop=1;jettySize=auto;html=1;" edge="1" parent="WIyWlLk6GJQsqaUBKTNV-1" source="2hGMCiskvzY-LJA3LFDo-7" target="2hGMCiskvzY-LJA3LFDo-10">
          <mxGeometry relative="1" as="geometry" />
        </mxCell>
        <mxCell id="2hGMCiskvzY-LJA3LFDo-7" value="" style="ellipse;whiteSpace=wrap;html=1;aspect=fixed;" vertex="1" parent="WIyWlLk6GJQsqaUBKTNV-1">
          <mxGeometry x="399" y="370" width="30" height="30" as="geometry" />
        </mxCell>
        <mxCell id="2hGMCiskvzY-LJA3LFDo-8" value="V" style="edgeStyle=orthogonalEdgeStyle;rounded=0;orthogonalLoop=1;jettySize=auto;html=1;" edge="1" parent="WIyWlLk6GJQsqaUBKTNV-1" source="2hGMCiskvzY-LJA3LFDo-10" target="2hGMCiskvzY-LJA3LFDo-12">
          <mxGeometry relative="1" as="geometry" />
        </mxCell>
        <mxCell id="2hGMCiskvzY-LJA3LFDo-9" value="F" style="edgeStyle=orthogonalEdgeStyle;rounded=0;orthogonalLoop=1;jettySize=auto;html=1;entryX=0.5;entryY=0;entryDx=0;entryDy=0;" edge="1" parent="WIyWlLk6GJQsqaUBKTNV-1" source="2hGMCiskvzY-LJA3LFDo-10" target="2hGMCiskvzY-LJA3LFDo-24">
          <mxGeometry relative="1" as="geometry">
            <Array as="points">
              <mxPoint x="340" y="480" />
              <mxPoint x="340" y="690" />
              <mxPoint x="414" y="690" />
            </Array>
          </mxGeometry>
        </mxCell>
        <mxCell id="2hGMCiskvzY-LJA3LFDo-10" value="i&amp;lt;5" style="rhombus;whiteSpace=wrap;html=1;rounded=0;" vertex="1" parent="WIyWlLk6GJQsqaUBKTNV-1">
          <mxGeometry x="374" y="440" width="80" height="80" as="geometry" />
        </mxCell>
        <mxCell id="2hGMCiskvzY-LJA3LFDo-11" style="edgeStyle=orthogonalEdgeStyle;rounded=0;orthogonalLoop=1;jettySize=auto;html=1;entryX=0.5;entryY=0;entryDx=0;entryDy=0;" edge="1" parent="WIyWlLk6GJQsqaUBKTNV-1" source="2hGMCiskvzY-LJA3LFDo-12" target="2hGMCiskvzY-LJA3LFDo-14">
          <mxGeometry relative="1" as="geometry" />
        </mxCell>
        <mxCell id="2hGMCiskvzY-LJA3LFDo-12" value="j=0" style="rounded=1;whiteSpace=wrap;html=1;" vertex="1" parent="WIyWlLk6GJQsqaUBKTNV-1">
          <mxGeometry x="500" y="450" width="120" height="60" as="geometry" />
        </mxCell>
        <mxCell id="2hGMCiskvzY-LJA3LFDo-13" style="edgeStyle=orthogonalEdgeStyle;rounded=0;orthogonalLoop=1;jettySize=auto;html=1;entryX=0.5;entryY=0;entryDx=0;entryDy=0;" edge="1" parent="WIyWlLk6GJQsqaUBKTNV-1" source="2hGMCiskvzY-LJA3LFDo-14" target="2hGMCiskvzY-LJA3LFDo-17">
          <mxGeometry relative="1" as="geometry" />
        </mxCell>
        <mxCell id="2hGMCiskvzY-LJA3LFDo-14" value="" style="ellipse;whiteSpace=wrap;html=1;aspect=fixed;" vertex="1" parent="WIyWlLk6GJQsqaUBKTNV-1">
          <mxGeometry x="537.5" y="540" width="45" height="45" as="geometry" />
        </mxCell>
        <mxCell id="2hGMCiskvzY-LJA3LFDo-15" value="F" style="edgeStyle=orthogonalEdgeStyle;rounded=0;orthogonalLoop=1;jettySize=auto;html=1;entryX=0.5;entryY=1;entryDx=0;entryDy=0;" edge="1" parent="WIyWlLk6GJQsqaUBKTNV-1" source="2hGMCiskvzY-LJA3LFDo-17" target="2hGMCiskvzY-LJA3LFDo-21">
          <mxGeometry relative="1" as="geometry" />
        </mxCell>
        <mxCell id="2hGMCiskvzY-LJA3LFDo-16" value="V" style="edgeStyle=orthogonalEdgeStyle;rounded=0;orthogonalLoop=1;jettySize=auto;html=1;entryX=0;entryY=0.5;entryDx=0;entryDy=0;" edge="1" parent="WIyWlLk6GJQsqaUBKTNV-1" source="2hGMCiskvzY-LJA3LFDo-17" target="2hGMCiskvzY-LJA3LFDo-23">
          <mxGeometry relative="1" as="geometry" />
        </mxCell>
        <mxCell id="2hGMCiskvzY-LJA3LFDo-17" value="j&amp;lt;5" style="rhombus;whiteSpace=wrap;html=1;rounded=0;" vertex="1" parent="WIyWlLk6GJQsqaUBKTNV-1">
          <mxGeometry x="520" y="610" width="80" height="80" as="geometry" />
        </mxCell>
        <mxCell id="2hGMCiskvzY-LJA3LFDo-18" style="edgeStyle=orthogonalEdgeStyle;rounded=0;orthogonalLoop=1;jettySize=auto;html=1;entryX=1;entryY=0.5;entryDx=0;entryDy=0;" edge="1" parent="WIyWlLk6GJQsqaUBKTNV-1" source="2hGMCiskvzY-LJA3LFDo-19" target="2hGMCiskvzY-LJA3LFDo-14">
          <mxGeometry relative="1" as="geometry" />
        </mxCell>
        <mxCell id="2hGMCiskvzY-LJA3LFDo-19" value="j++" style="rounded=0;whiteSpace=wrap;html=1;" vertex="1" parent="WIyWlLk6GJQsqaUBKTNV-1">
          <mxGeometry x="680" y="532.5" width="120" height="60" as="geometry" />
        </mxCell>
        <mxCell id="2hGMCiskvzY-LJA3LFDo-20" style="edgeStyle=orthogonalEdgeStyle;rounded=0;orthogonalLoop=1;jettySize=auto;html=1;entryX=0;entryY=0.5;entryDx=0;entryDy=0;" edge="1" parent="WIyWlLk6GJQsqaUBKTNV-1" source="2hGMCiskvzY-LJA3LFDo-21" target="2hGMCiskvzY-LJA3LFDo-7">
          <mxGeometry relative="1" as="geometry" />
        </mxCell>
        <mxCell id="2hGMCiskvzY-LJA3LFDo-21" value="I++" style="rounded=0;whiteSpace=wrap;html=1;" vertex="1" parent="WIyWlLk6GJQsqaUBKTNV-1">
          <mxGeometry x="180" y="355" width="120" height="60" as="geometry" />
        </mxCell>
        <mxCell id="2hGMCiskvzY-LJA3LFDo-22" style="edgeStyle=orthogonalEdgeStyle;rounded=0;orthogonalLoop=1;jettySize=auto;html=1;entryX=1;entryY=0.5;entryDx=0;entryDy=0;" edge="1" parent="WIyWlLk6GJQsqaUBKTNV-1" source="2hGMCiskvzY-LJA3LFDo-23" target="2hGMCiskvzY-LJA3LFDo-19">
          <mxGeometry relative="1" as="geometry">
            <mxPoint x="870" y="550" as="targetPoint" />
            <Array as="points">
              <mxPoint x="910" y="650" />
              <mxPoint x="910" y="562" />
            </Array>
          </mxGeometry>
        </mxCell>
        <mxCell id="2hGMCiskvzY-LJA3LFDo-23" value="m[i][j] = &#39; &#39;" style="rounded=0;whiteSpace=wrap;html=1;" vertex="1" parent="WIyWlLk6GJQsqaUBKTNV-1">
          <mxGeometry x="680" y="620" width="120" height="60" as="geometry" />
        </mxCell>
        <mxCell id="2hGMCiskvzY-LJA3LFDo-43" style="edgeStyle=orthogonalEdgeStyle;rounded=0;orthogonalLoop=1;jettySize=auto;html=1;entryX=0.5;entryY=0;entryDx=0;entryDy=0;" edge="1" parent="WIyWlLk6GJQsqaUBKTNV-1" source="2hGMCiskvzY-LJA3LFDo-24" target="2hGMCiskvzY-LJA3LFDo-26">
          <mxGeometry relative="1" as="geometry" />
        </mxCell>
        <mxCell id="2hGMCiskvzY-LJA3LFDo-24" value="i = 0&lt;br&gt;j = 0" style="rounded=0;whiteSpace=wrap;html=1;" vertex="1" parent="WIyWlLk6GJQsqaUBKTNV-1">
          <mxGeometry x="354" y="740" width="120" height="60" as="geometry" />
        </mxCell>
        <mxCell id="2hGMCiskvzY-LJA3LFDo-25" style="edgeStyle=orthogonalEdgeStyle;rounded=0;orthogonalLoop=1;jettySize=auto;html=1;" edge="1" parent="WIyWlLk6GJQsqaUBKTNV-1" source="2hGMCiskvzY-LJA3LFDo-26" target="2hGMCiskvzY-LJA3LFDo-28">
          <mxGeometry relative="1" as="geometry" />
        </mxCell>
        <mxCell id="2hGMCiskvzY-LJA3LFDo-26" value="" style="ellipse;whiteSpace=wrap;html=1;aspect=fixed;" vertex="1" parent="WIyWlLk6GJQsqaUBKTNV-1">
          <mxGeometry x="399" y="849" width="30" height="30" as="geometry" />
        </mxCell>
        <mxCell id="2hGMCiskvzY-LJA3LFDo-27" value="V" style="edgeStyle=orthogonalEdgeStyle;rounded=0;orthogonalLoop=1;jettySize=auto;html=1;" edge="1" parent="WIyWlLk6GJQsqaUBKTNV-1" source="2hGMCiskvzY-LJA3LFDo-28" target="2hGMCiskvzY-LJA3LFDo-30">
          <mxGeometry relative="1" as="geometry" />
        </mxCell>
        <mxCell id="2hGMCiskvzY-LJA3LFDo-28" value="i&amp;lt;5" style="rhombus;whiteSpace=wrap;html=1;rounded=0;" vertex="1" parent="WIyWlLk6GJQsqaUBKTNV-1">
          <mxGeometry x="374" y="919" width="80" height="80" as="geometry" />
        </mxCell>
        <mxCell id="2hGMCiskvzY-LJA3LFDo-29" style="edgeStyle=orthogonalEdgeStyle;rounded=0;orthogonalLoop=1;jettySize=auto;html=1;entryX=0.5;entryY=0;entryDx=0;entryDy=0;" edge="1" parent="WIyWlLk6GJQsqaUBKTNV-1" source="2hGMCiskvzY-LJA3LFDo-30" target="2hGMCiskvzY-LJA3LFDo-32">
          <mxGeometry relative="1" as="geometry" />
        </mxCell>
        <mxCell id="2hGMCiskvzY-LJA3LFDo-30" value="j=0" style="rounded=1;whiteSpace=wrap;html=1;" vertex="1" parent="WIyWlLk6GJQsqaUBKTNV-1">
          <mxGeometry x="500" y="929" width="120" height="60" as="geometry" />
        </mxCell>
        <mxCell id="2hGMCiskvzY-LJA3LFDo-31" style="edgeStyle=orthogonalEdgeStyle;rounded=0;orthogonalLoop=1;jettySize=auto;html=1;entryX=0.5;entryY=0;entryDx=0;entryDy=0;" edge="1" parent="WIyWlLk6GJQsqaUBKTNV-1" source="2hGMCiskvzY-LJA3LFDo-32" target="2hGMCiskvzY-LJA3LFDo-35">
          <mxGeometry relative="1" as="geometry" />
        </mxCell>
        <mxCell id="2hGMCiskvzY-LJA3LFDo-32" value="" style="ellipse;whiteSpace=wrap;html=1;aspect=fixed;" vertex="1" parent="WIyWlLk6GJQsqaUBKTNV-1">
          <mxGeometry x="537.5" y="1019" width="45" height="45" as="geometry" />
        </mxCell>
        <mxCell id="2hGMCiskvzY-LJA3LFDo-33" value="F" style="edgeStyle=orthogonalEdgeStyle;rounded=0;orthogonalLoop=1;jettySize=auto;html=1;entryX=0.5;entryY=1;entryDx=0;entryDy=0;" edge="1" parent="WIyWlLk6GJQsqaUBKTNV-1" source="2hGMCiskvzY-LJA3LFDo-35" target="2hGMCiskvzY-LJA3LFDo-39">
          <mxGeometry relative="1" as="geometry" />
        </mxCell>
        <mxCell id="2hGMCiskvzY-LJA3LFDo-34" value="V" style="edgeStyle=orthogonalEdgeStyle;rounded=0;orthogonalLoop=1;jettySize=auto;html=1;entryX=0;entryY=0.5;entryDx=0;entryDy=0;" edge="1" parent="WIyWlLk6GJQsqaUBKTNV-1" source="2hGMCiskvzY-LJA3LFDo-35">
          <mxGeometry relative="1" as="geometry">
            <mxPoint x="680" y="1129" as="targetPoint" />
          </mxGeometry>
        </mxCell>
        <mxCell id="2hGMCiskvzY-LJA3LFDo-35" value="j&amp;lt;5" style="rhombus;whiteSpace=wrap;html=1;rounded=0;" vertex="1" parent="WIyWlLk6GJQsqaUBKTNV-1">
          <mxGeometry x="520" y="1089" width="80" height="80" as="geometry" />
        </mxCell>
        <mxCell id="2hGMCiskvzY-LJA3LFDo-36" style="edgeStyle=orthogonalEdgeStyle;rounded=0;orthogonalLoop=1;jettySize=auto;html=1;entryX=1;entryY=0.5;entryDx=0;entryDy=0;" edge="1" parent="WIyWlLk6GJQsqaUBKTNV-1" source="2hGMCiskvzY-LJA3LFDo-37" target="2hGMCiskvzY-LJA3LFDo-32">
          <mxGeometry relative="1" as="geometry" />
        </mxCell>
        <mxCell id="2hGMCiskvzY-LJA3LFDo-37" value="j++" style="rounded=0;whiteSpace=wrap;html=1;" vertex="1" parent="WIyWlLk6GJQsqaUBKTNV-1">
          <mxGeometry x="680" y="1011.5" width="120" height="60" as="geometry" />
        </mxCell>
        <mxCell id="2hGMCiskvzY-LJA3LFDo-38" style="edgeStyle=orthogonalEdgeStyle;rounded=0;orthogonalLoop=1;jettySize=auto;html=1;entryX=0;entryY=0.5;entryDx=0;entryDy=0;" edge="1" parent="WIyWlLk6GJQsqaUBKTNV-1" source="2hGMCiskvzY-LJA3LFDo-39" target="2hGMCiskvzY-LJA3LFDo-26">
          <mxGeometry relative="1" as="geometry" />
        </mxCell>
        <mxCell id="2hGMCiskvzY-LJA3LFDo-39" value="I++" style="rounded=0;whiteSpace=wrap;html=1;" vertex="1" parent="WIyWlLk6GJQsqaUBKTNV-1">
          <mxGeometry x="180" y="834" width="120" height="60" as="geometry" />
        </mxCell>
        <mxCell id="2hGMCiskvzY-LJA3LFDo-48" value="V" style="edgeStyle=orthogonalEdgeStyle;rounded=0;orthogonalLoop=1;jettySize=auto;html=1;" edge="1" parent="WIyWlLk6GJQsqaUBKTNV-1" source="2hGMCiskvzY-LJA3LFDo-44" target="2hGMCiskvzY-LJA3LFDo-47">
          <mxGeometry relative="1" as="geometry" />
        </mxCell>
        <mxCell id="2hGMCiskvzY-LJA3LFDo-52" value="F" style="edgeStyle=orthogonalEdgeStyle;rounded=0;orthogonalLoop=1;jettySize=auto;html=1;entryX=1;entryY=0.5;entryDx=0;entryDy=0;" edge="1" parent="WIyWlLk6GJQsqaUBKTNV-1" source="2hGMCiskvzY-LJA3LFDo-44" target="2hGMCiskvzY-LJA3LFDo-49">
          <mxGeometry relative="1" as="geometry">
            <Array as="points">
              <mxPoint x="720" y="1180" />
              <mxPoint x="1030" y="1180" />
              <mxPoint x="1030" y="1042" />
            </Array>
          </mxGeometry>
        </mxCell>
        <mxCell id="2hGMCiskvzY-LJA3LFDo-44" value="i+j == 4" style="rhombus;whiteSpace=wrap;html=1;" vertex="1" parent="WIyWlLk6GJQsqaUBKTNV-1">
          <mxGeometry x="680" y="1089" width="80" height="80" as="geometry" />
        </mxCell>
        <mxCell id="2hGMCiskvzY-LJA3LFDo-51" style="edgeStyle=orthogonalEdgeStyle;rounded=0;orthogonalLoop=1;jettySize=auto;html=1;" edge="1" parent="WIyWlLk6GJQsqaUBKTNV-1" source="2hGMCiskvzY-LJA3LFDo-47" target="2hGMCiskvzY-LJA3LFDo-49">
          <mxGeometry relative="1" as="geometry" />
        </mxCell>
        <mxCell id="2hGMCiskvzY-LJA3LFDo-47" value="m[i][j] = &#39;*&#39;" style="rounded=0;whiteSpace=wrap;html=1;" vertex="1" parent="WIyWlLk6GJQsqaUBKTNV-1">
          <mxGeometry x="840" y="1099" width="120" height="60" as="geometry" />
        </mxCell>
        <mxCell id="2hGMCiskvzY-LJA3LFDo-50" style="edgeStyle=orthogonalEdgeStyle;rounded=0;orthogonalLoop=1;jettySize=auto;html=1;" edge="1" parent="WIyWlLk6GJQsqaUBKTNV-1" source="2hGMCiskvzY-LJA3LFDo-49" target="2hGMCiskvzY-LJA3LFDo-37">
          <mxGeometry relative="1" as="geometry" />
        </mxCell>
        <mxCell id="2hGMCiskvzY-LJA3LFDo-49" value="" style="ellipse;whiteSpace=wrap;html=1;aspect=fixed;" vertex="1" parent="WIyWlLk6GJQsqaUBKTNV-1">
          <mxGeometry x="900" y="1019" width="45" height="45" as="geometry" />
        </mxCell>
      </root>
    </mxGraphModel>
  </diagram>
</mxfile>
